<svg width="31" height="31" viewBox="0 0 31 31" fill="none" xmlns="http://www.w3.org/2000/svg">
<circle cx="15.5998" cy="15.0649" r="14.9997" fill="white"/>
<path d="M12.6022 11.4884C12.6022 13.0041 11.5321 14.2328 10.2119 14.2328C8.89187 14.2328 7.82178 13.0041 7.82178 11.4884C7.82178 9.97278 8.89187 8.74435 10.2119 8.74435C11.5321 8.74435 12.6022 9.97278 12.6022 11.4884Z" fill="#21214D"/>
<path d="M23.3783 11.4884C23.3783 13.0041 22.3082 14.2328 20.9882 14.2328C19.6682 14.2328 18.5981 13.0041 18.5981 11.4884C18.5981 9.97278 19.6682 8.74435 20.9882 8.74435C22.3082 8.74435 23.3783 9.97278 23.3783 11.4884Z" fill="#21214D"/>
<path d="M10.6196 10.6743C10.6196 11.1532 10.2311 11.5419 9.75192 11.5419C9.27271 11.5419 8.88428 11.1532 8.88428 10.6743C8.88428 10.1951 9.27271 9.80663 9.75192 9.80663C10.2311 9.80663 10.6196 10.1951 10.6196 10.6743Z" fill="white"/>
<path d="M21.3959 10.6743C21.3959 11.1532 21.0075 11.5419 20.5283 11.5419C20.0491 11.5419 19.6606 11.1532 19.6606 10.6743C19.6606 10.1951 20.0491 9.80663 20.5283 9.80663C21.0075 9.80663 21.3959 10.1951 21.3959 10.6743Z" fill="white"/>
<path d="M22.0968 20.6103L22.0825 20.5962C21.6327 20.2067 20.8893 20.3163 20.3193 20.7131C19.5544 21.2513 18.7222 21.623 17.8653 21.839C17.164 22.0516 16.3992 22.1685 15.5988 22.1685C14.7951 22.1685 14.0302 22.0516 13.3256 21.8356C12.472 21.6196 11.6435 21.2476 10.8823 20.7131C10.312 20.3163 9.56856 20.2067 9.11882 20.5962L9.10108 20.6103C8.65499 20.9891 8.77526 21.8815 9.48352 22.4906C11.0406 23.8271 12.9494 24.6157 14.9412 24.8296C15.1585 24.8424 15.3776 24.8513 15.6001 24.8513C15.8232 24.8513 16.0428 24.8424 16.2607 24.8296C18.2521 24.6154 20.1607 23.8271 21.7144 22.4906C22.426 21.8815 22.5466 20.9891 22.0968 20.6103Z" fill="#21214D"/>
</svg>
