<svg width="31" height="31" viewBox="0 0 31 31" fill="none" xmlns="http://www.w3.org/2000/svg">
<circle cx="15.5993" cy="15.0649" r="14.9997" fill="white"/>
<path d="M12.6017 11.4884C12.6017 13.0041 11.5316 14.2328 10.2114 14.2328C8.89138 14.2328 7.82129 13.0041 7.82129 11.4884C7.82129 9.97278 8.89138 8.74435 10.2114 8.74435C11.5316 8.74435 12.6017 9.97278 12.6017 11.4884Z" fill="#21214D"/>
<path d="M23.3778 11.4884C23.3778 13.0041 22.3077 14.2328 20.9877 14.2328C19.6677 14.2328 18.5977 13.0041 18.5977 11.4884C18.5977 9.97278 19.6677 8.74435 20.9877 8.74435C22.3077 8.74435 23.3778 9.97278 23.3778 11.4884Z" fill="#21214D"/>
<path d="M10.6191 10.6743C10.6191 11.1532 10.2307 11.5419 9.75144 11.5419C9.27222 11.5419 8.88379 11.1532 8.88379 10.6743C8.88379 10.1951 9.27222 9.80663 9.75144 9.80663C10.2307 9.80663 10.6191 10.1951 10.6191 10.6743Z" fill="white"/>
<path d="M21.3955 10.6743C21.3955 11.1532 21.007 11.5419 20.5278 11.5419C20.0486 11.5419 19.6602 11.1532 19.6602 10.6743C19.6602 10.1951 20.0486 9.80663 20.5278 9.80663C21.007 9.80663 21.3955 10.1951 21.3955 10.6743Z" fill="white"/>
<path d="M22.0968 20.6103L22.0825 20.5962C21.6327 20.2067 20.8893 20.3163 20.3193 20.7131C19.5544 21.2513 18.7222 21.623 17.8653 21.839C17.164 22.0516 16.3992 22.1685 15.5988 22.1685C14.7951 22.1685 14.0302 22.0516 13.3256 21.8356C12.472 21.6196 11.6435 21.2476 10.8823 20.7131C10.312 20.3163 9.56856 20.2067 9.11882 20.5962L9.10108 20.6103C8.65499 20.9891 8.77526 21.8815 9.48352 22.4906C11.0406 23.8271 12.9494 24.6157 14.9412 24.8296C15.1585 24.8424 15.3776 24.8513 15.6001 24.8513C15.8232 24.8513 16.0428 24.8424 16.2607 24.8296C18.2521 24.6154 20.1607 23.8271 21.7144 22.4906C22.426 21.8815 22.5466 20.9891 22.0968 20.6103Z" fill="#21214D"/>
</svg>
