<svg width="16" height="17" viewBox="0 0 16 17" fill="none" xmlns="http://www.w3.org/2000/svg">
<path d="M3.00147 2.5H5.62775C5.81534 2.5 6.00293 2.6875 6.00293 2.875V3.625C6.00293 3.84375 5.81534 4 5.62775 4H3.00147C2.1573 4 1.50073 4.6875 1.50073 5.5V11.5C1.50073 12.3438 2.1573 13 3.00147 13H5.62775C5.81534 13 6.00293 13.1875 6.00293 13.375V14.125C6.00293 14.3438 5.81534 14.5 5.62775 14.5H3.00147C1.34441 14.5 0 13.1563 0 11.5V5.5C0 3.84375 1.34441 2.5 3.00147 2.5ZM10.2237 3.125C10.3488 2.96875 10.5989 2.96875 10.7553 3.125L15.8828 8.25C16.0391 8.40625 16.0391 8.625 15.8828 8.78125L10.7553 13.9063C10.5989 14.0625 10.3488 14.0625 10.2237 13.9063L9.59844 13.2813C9.44211 13.1563 9.44211 12.9063 9.59844 12.75L13.1314 9.3125H5.37763C5.15877 9.3125 5.00244 9.15625 5.00244 8.9375V8.0625C5.00244 7.875 5.15877 7.6875 5.37763 7.6875H13.1314L9.59844 4.28125C9.44211 4.125 9.44211 3.875 9.59844 3.75L10.2237 3.125Z" fill="#21214D"/>
</svg>
