<svg width="38" height="39" viewBox="0 0 38 39" fill="none" xmlns="http://www.w3.org/2000/svg">
<ellipse cx="18.9996" cy="19.0822" rx="18.9996" ry="18.9996" fill="#89CAFF"/>
<path d="M13.7034 31.3707L13.7216 31.3804C14.2963 31.6319 15.118 31.3735 15.695 30.8966C16.4679 30.251 17.3452 29.7395 18.277 29.3621C19.0334 29.0214 19.878 28.7524 20.7827 28.5803C21.6911 28.4071 22.5756 28.347 23.4087 28.3883C24.4099 28.3976 25.4098 28.5514 26.3614 28.8654C27.0732 29.0975 27.9323 29.0352 28.3744 28.5906L28.3919 28.574C28.8317 28.1395 28.5439 27.368 27.6399 26.976C25.6523 26.1168 23.3607 25.8232 21.0731 26.0607C20.8253 26.0958 20.5762 26.135 20.3247 26.1829C20.0726 26.2309 19.8258 26.286 19.5816 26.3445C17.3673 26.9645 15.3444 28.0797 13.8158 29.6082C13.115 30.3059 13.1305 31.129 13.7034 31.3707Z" fill="#21214D"/>
<path d="M15.2027 15.5239C15.2027 17.4437 13.8472 19 12.1752 19C10.5029 19 9.14746 17.4437 9.14746 15.5239C9.14746 13.604 10.5029 12.0477 12.1752 12.0477C13.8472 12.0477 15.2027 13.604 15.2027 15.5239Z" fill="#21214D"/>
<path d="M28.8528 15.5239C28.8528 17.4437 27.4974 19 25.825 19C24.153 19 22.7976 17.4437 22.7976 15.5239C22.7976 13.604 24.153 12.0477 25.825 12.0477C27.4974 12.0477 28.8528 13.604 28.8528 15.5239Z" fill="#21214D"/>
<path d="M12.691 14.4922C12.691 15.0991 12.199 15.5912 11.5919 15.5912C10.9849 15.5912 10.4929 15.0991 10.4929 14.4922C10.4929 13.8854 10.9849 13.3931 11.5919 13.3931C12.199 13.3931 12.691 13.8854 12.691 14.4922Z" fill="white"/>
<path d="M26.3414 14.4922C26.3414 15.0991 25.8493 15.5912 25.2423 15.5912C24.6353 15.5912 24.1433 15.0991 24.1433 14.4922C24.1433 13.8854 24.6353 13.3931 25.2423 13.3931C25.8493 13.3931 26.3414 13.8854 26.3414 14.4922Z" fill="white"/>
</svg>
