<svg width="30" height="31" viewBox="0 0 30 31" fill="none" xmlns="http://www.w3.org/2000/svg">
<circle cx="14.9998" cy="15.0647" r="14.9998" fill="white"/>
<path d="M15.0004 24.8053H17.9603C18.8931 24.8053 19.3311 23.9637 18.6336 23.5116L18.5725 23.472C16.5348 22.1517 13.4662 22.1517 11.4285 23.472L11.3672 23.5116C10.6697 23.9637 11.1079 24.8053 12.0408 24.8053H15.0004Z" fill="#21214D"/>
<path d="M10.6582 16.2953C10.8982 16.1873 11.134 16.0671 11.349 15.9153C12.0512 15.4186 12.4958 14.5765 12.5096 13.7166C12.5117 13.5979 12.5051 13.4758 12.4564 13.3676C12.3369 13.1031 11.9886 13.0037 11.7097 13.0845C11.4311 13.1654 11.213 13.3817 11.0325 13.6092C10.852 13.8364 10.6934 14.0855 10.4724 14.2739C10.2802 14.4377 10.0488 14.5488 9.81478 14.6443C9.12164 14.9268 8.29207 15.0771 7.65189 14.6889C7.52119 14.6096 7.4038 14.5107 7.28537 14.4139C6.98693 14.1695 6.66762 13.9303 6.29327 13.8377C5.91865 13.7451 5.47387 13.8343 5.24769 14.1466C5.05986 14.4059 5.06012 14.7679 5.18352 15.0635C5.30665 15.3588 5.53647 15.5973 5.78248 15.802C6.59118 16.4743 7.64719 16.8534 8.69772 16.8064C9.37651 16.7761 10.0386 16.5742 10.6582 16.2953Z" fill="#21214D"/>
<path d="M19.343 16.2953C19.103 16.1873 18.8671 16.0671 18.6522 15.9153C17.9499 15.4186 17.5054 14.5765 17.4915 13.7166C17.4895 13.5979 17.496 13.4758 17.5448 13.3676C17.6642 13.1031 18.0125 13.0037 18.2911 13.0845C18.57 13.1654 18.7881 13.3817 18.9686 13.6092C19.1491 13.8364 19.3077 14.0855 19.5287 14.2739C19.721 14.4377 19.9524 14.5488 20.1864 14.6443C20.8795 14.9268 21.7091 15.0771 22.3492 14.6889C22.4799 14.6096 22.5973 14.5107 22.7158 14.4139C23.0142 14.1695 23.3335 13.9303 23.7079 13.8377C24.0825 13.7451 24.5273 13.8343 24.7534 14.1466C24.9413 14.4059 24.941 14.7679 24.8176 15.0635C24.6945 15.3588 24.4647 15.5973 24.2186 15.802C23.4099 16.4743 22.3539 16.8534 21.3034 16.8064C20.6246 16.7761 19.9625 16.5742 19.343 16.2953Z" fill="#21214D"/>
<path opacity="0.3" d="M8.64664 9.05117C9.6403 8.34133 10.4344 7.90046 11.0141 8.26569C11.5937 8.63091 11.6044 9.88257 10.7514 10.337C9.89832 10.7914 7.46673 12.2249 4.07226 11.3309C3.55182 11.2302 4.24235 10.001 5.66384 10.026C7.08533 10.0514 8.29238 9.29769 8.64664 9.05117Z" fill="#21214D"/>
<path opacity="0.3" d="M21.3537 9.05117C20.36 8.34133 19.5659 7.90046 18.9863 8.26569C18.4066 8.63091 18.3959 9.88257 19.249 10.337C20.102 10.7914 22.5336 12.2249 25.9281 11.3309C26.4485 11.2302 25.758 10.001 24.3365 10.026C22.915 10.0514 21.7079 9.29769 21.3537 9.05117Z" fill="#21214D"/>
</svg>
