<svg width="38" height="39" viewBox="0 0 38 39" fill="none" xmlns="http://www.w3.org/2000/svg">
<ellipse cx="18.9996" cy="19.082" rx="18.9996" ry="18.9997" fill="#B8B1FF"/>
<path d="M18.9998 31.4199H22.7489C23.9306 31.4199 24.4854 30.3539 23.6018 29.7813L23.5245 29.731C20.9434 28.0587 17.0565 28.0587 14.4755 29.731L14.3979 29.7813C13.5143 30.3539 14.0694 31.4199 15.251 31.4199H18.9998Z" fill="#21214D"/>
<path d="M13.4998 20.6407C13.8038 20.5039 14.1025 20.3516 14.3748 20.1592C15.2643 19.5301 15.8274 18.4634 15.8449 17.3743C15.8475 17.224 15.8393 17.0693 15.7775 16.9322C15.6262 16.5971 15.185 16.4712 14.8318 16.5737C14.4789 16.6761 14.2026 16.95 13.974 17.2382C13.7453 17.526 13.5444 17.8416 13.2645 18.0801C13.021 18.2876 12.7279 18.4284 12.4315 18.5494C11.5536 18.9072 10.5028 19.0976 9.69188 18.6059C9.52633 18.5054 9.37764 18.3802 9.22762 18.2576C8.8496 17.948 8.44514 17.6449 7.97097 17.5276C7.49646 17.4103 6.93307 17.5234 6.64658 17.9189C6.40867 18.2473 6.409 18.706 6.5653 19.0804C6.72126 19.4544 7.01238 19.7564 7.32398 20.0158C8.34832 20.8674 9.68592 21.3475 11.0166 21.288C11.8764 21.2497 12.715 20.9939 13.4998 20.6407Z" fill="#21214D"/>
<path d="M24.5003 20.6407C24.1963 20.5039 23.8976 20.3516 23.6253 20.1592C22.7358 19.5301 22.1727 18.4634 22.1552 17.3743C22.1526 17.224 22.1608 17.0693 22.2226 16.9322C22.374 16.5971 22.8151 16.4712 23.168 16.5737C23.5212 16.6761 23.7975 16.95 24.0261 17.2382C24.2548 17.526 24.4557 17.8416 24.7356 18.0801C24.9791 18.2876 25.2722 18.4284 25.5686 18.5494C26.4466 18.9072 27.4973 19.0976 28.3082 18.6059C28.4738 18.5054 28.6225 18.3802 28.7725 18.2576C29.1505 17.948 29.555 17.6449 30.0291 17.5276C30.5036 17.4103 31.067 17.5234 31.3535 17.9189C31.5914 18.2473 31.5911 18.706 31.4348 19.0804C31.2788 19.4544 30.9877 19.7564 30.6761 20.0158C29.6518 20.8674 28.3142 21.3475 26.9835 21.288C26.1237 21.2497 25.2851 20.9939 24.5003 20.6407Z" fill="#21214D"/>
<path opacity="0.3" d="M10.9523 11.4648C12.2109 10.5657 13.2168 10.0072 13.951 10.4698C14.6852 10.9324 14.6988 12.5179 13.6183 13.0935C12.5378 13.6691 9.45777 15.4849 5.15815 14.3525C4.49893 14.2249 5.37359 12.6679 7.17412 12.6996C8.97466 12.7317 10.5036 11.777 10.9523 11.4648Z" fill="#21214D"/>
<path opacity="0.3" d="M27.0482 11.4648C25.7895 10.5657 24.7837 10.0072 24.0495 10.4698C23.3153 10.9324 23.3017 12.5179 24.3822 13.0935C25.4628 13.6691 28.5427 15.4849 32.8423 14.3525C33.5016 14.2249 32.6269 12.6679 30.8264 12.6996C29.0258 12.7317 27.4969 11.777 27.0482 11.4648Z" fill="#21214D"/>
</svg>
