<svg width="16" height="17" viewBox="0 0 16 17" fill="none" xmlns="http://www.w3.org/2000/svg">
<path d="M14.3452 7.87033C14.3774 8.29011 14.3774 8.70989 14.3452 9.09738L15.3785 9.7109C15.6691 9.87235 15.8305 10.2275 15.7336 10.5827C15.3785 11.939 14.6358 13.166 13.667 14.167C13.4087 14.393 13.0212 14.4576 12.7306 14.2962L11.6973 13.6826C11.439 13.8764 10.9546 14.167 10.6317 14.2962V15.4909C10.6317 15.8461 10.4057 16.1367 10.0505 16.2336C8.72659 16.5888 7.27351 16.5888 5.94959 16.2336C5.62669 16.169 5.36836 15.8138 5.36836 15.4909V14.2962C5.04545 14.167 4.5611 13.8764 4.30277 13.6826L3.26947 14.2962C2.97886 14.4576 2.59137 14.393 2.33304 14.167C1.36433 13.166 0.621641 11.939 0.266444 10.5827C0.169572 10.2275 0.331025 9.87235 0.621641 9.7109L1.65494 9.09738C1.62265 8.93592 1.62265 8.6776 1.62265 8.48385C1.62265 8.3224 1.62265 8.06408 1.65494 7.87033L0.621641 7.2891C0.331025 7.12765 0.169572 6.77245 0.266444 6.41726C0.621641 5.06105 1.36433 3.83401 2.33304 2.833C2.59137 2.60696 2.97886 2.54238 3.26947 2.70383L4.30277 3.31736C4.5611 3.12361 5.04545 2.833 5.36836 2.70383V1.50908C5.36836 1.15388 5.5944 0.863269 5.94959 0.766398C7.27351 0.411201 8.72659 0.411201 10.0505 0.766398C10.3734 0.830979 10.6317 1.18618 10.6317 1.50908V2.70383C10.9546 2.833 11.439 3.12361 11.6973 3.31736L12.7306 2.70383C13.0212 2.54238 13.4087 2.60696 13.667 2.833C14.6358 3.83401 15.3785 5.06105 15.7336 6.41726C15.8305 6.77245 15.6691 7.12765 15.3785 7.2891L14.3452 7.87033ZM12.6337 9.93693C12.8921 8.58073 12.8921 8.41927 12.6337 7.06307L14.0545 6.2558C13.8608 5.67457 13.3441 4.83501 12.9567 4.38295L11.5359 5.19021C10.5349 4.31837 10.3734 4.22149 9.08178 3.76942V2.1226C8.79117 2.09031 8.30681 2.02573 8.01619 2.02573C7.69329 2.02573 7.20893 2.09031 6.91831 2.1226V3.76942C5.62669 4.22149 5.49752 4.31837 4.46422 5.19021L3.04344 4.38295C2.55908 4.93189 2.20388 5.5777 1.94556 6.2558L3.36634 7.06307C3.10802 8.41927 3.10802 8.58073 3.36634 9.93693L1.94556 10.7442C2.1393 11.3254 2.65595 12.165 3.04344 12.6171L4.46422 11.8098C5.46523 12.6816 5.62669 12.7785 6.91831 13.2306V14.8774C7.20893 14.9097 7.69329 14.9743 8.01619 14.9743C8.30681 14.9743 8.79117 14.9097 9.08178 14.8774V13.2306C10.3734 12.7785 10.5026 12.6816 11.5359 11.8098L12.9567 12.6171C13.3441 12.165 13.8608 11.3254 14.0545 10.7442L12.6337 9.93693ZM8.01619 5.38396C9.6953 5.38396 11.1161 6.80474 11.1161 8.48385C11.1161 10.1953 9.6953 11.5838 8.01619 11.5838C6.30479 11.5838 4.91629 10.1953 4.91629 8.48385C4.91629 6.80474 6.30479 5.38396 8.01619 5.38396ZM8.01619 10.0338C8.85575 10.0338 9.56614 9.3557 9.56614 8.48385C9.56614 7.6443 8.85575 6.93391 8.01619 6.93391C7.14435 6.93391 6.46624 7.6443 6.46624 8.48385C6.46624 9.3557 7.14435 10.0338 8.01619 10.0338Z" fill="#21214D"/>
</svg>
