<svg width="38" height="38" viewBox="0 0 38 38" fill="none" xmlns="http://www.w3.org/2000/svg">
<ellipse cx="19" cy="19" rx="19" ry="19" fill="#FFC97C"/>
<path d="M15.2028 14.7177C15.2028 16.6376 13.8473 18.194 12.1753 18.194C10.5033 18.194 9.14746 16.6376 9.14746 14.7177C9.14746 12.7979 10.5033 11.2415 12.1753 11.2415C13.8473 11.2415 15.2028 12.7979 15.2028 14.7177Z" fill="#21214D"/>
<path d="M28.8532 14.7177C28.8532 16.6376 27.4977 18.194 25.8257 18.194C24.1533 18.194 22.7979 16.6376 22.7979 14.7177C22.7979 12.7979 24.1533 11.2415 25.8257 11.2415C27.4977 11.2415 28.8532 12.7979 28.8532 14.7177Z" fill="#21214D"/>
<path d="M12.6909 13.686C12.6909 14.2931 12.1989 14.7851 11.5922 14.7851C10.9852 14.7851 10.4932 14.2931 10.4932 13.686C10.4932 13.079 10.9852 12.587 11.5922 12.587C12.1989 12.587 12.6909 13.079 12.6909 13.686Z" fill="white"/>
<path d="M26.3414 13.686C26.3414 14.2931 25.8494 14.7851 25.2424 14.7851C24.6353 14.7851 24.1433 14.2931 24.1433 13.686C24.1433 13.079 24.6353 12.587 25.2424 12.587C25.8494 12.587 26.3414 13.079 26.3414 13.686Z" fill="white"/>
<path d="M19.0007 31.9368C22.4673 31.9367 24.8513 30.8657 26.572 29.5364C27.8747 28.53 28.8047 27.3725 29.5486 26.3694L30.2371 25.429L30.238 25.428C30.8113 24.6541 30.8844 23.9535 30.7625 23.4036L30.699 23.177L30.696 23.1682C30.6837 23.1295 30.669 23.0903 30.6531 23.051L30.5994 22.9309L30.5974 22.926C30.4593 22.6307 30.2716 22.4014 30.1062 22.26C30.0418 22.205 29.9872 22.1708 29.948 22.1497C28.0123 23.0147 25.7738 23.3847 23.7937 23.5403C21.7671 23.6995 19.9609 23.638 19.0007 23.6379C18.0405 23.6379 16.2337 23.6996 14.2068 23.5403C12.2267 23.3847 9.98818 23.0147 8.05249 22.1497C8.01334 22.1708 7.95861 22.205 7.89429 22.26C7.77026 22.3661 7.63316 22.5212 7.5144 22.717L7.40308 22.926L7.40112 22.9309L7.34741 23.051L7.30444 23.1692L7.30151 23.177L7.23804 23.4036C7.12486 23.9142 7.17973 24.5552 7.64722 25.2639L7.76245 25.428V25.429C8.6167 26.5842 9.69218 28.1943 11.4294 29.5364C13.1502 30.8657 15.5341 31.9368 19.0007 31.9368Z" fill="#21214D" stroke="#21214D"/>
<path d="M10.0394 25.609C12.4244 27.1361 15.5625 28.0623 18.9997 28.0623C21.3737 28.0623 23.6051 27.6205 25.5434 26.844C26.7421 26.364 27.8289 25.7561 28.7682 25.0457C29.0719 24.816 29.3597 24.5758 29.631 24.3257C29.9023 24.0759 30.157 23.8158 30.3943 23.5468C30.443 23.4915 30.491 23.4358 30.5382 23.3798C30.5482 23.3681 30.5582 23.3564 30.5681 23.3446L30.5824 23.3269C30.6297 23.2699 30.6762 23.2126 30.722 23.1549L30.736 23.1375L30.7436 23.1275C30.8503 22.9918 30.9527 22.8541 31.0506 22.7144C30.8602 22.3078 30.5892 21.9929 30.3435 21.8093C30.2688 21.7532 30.1966 21.7092 30.1298 21.6786C30.1297 21.6787 30.1297 21.6788 30.1296 21.6789C30.1044 21.6678 30.0804 21.6587 30.0573 21.6513C30.038 21.645 30.0193 21.64 30.0013 21.6363C29.985 21.6329 29.9693 21.6305 29.954 21.629L29.9536 21.6297L29.954 21.6285C29.9226 21.6285 29.8963 21.6286 29.8701 21.6365L29.87 21.6368C26.461 23.2132 21.9363 23.1661 19.6512 23.1424C19.4072 23.1398 19.1886 23.1376 18.9998 23.1376C18.8106 23.1376 18.5917 23.1398 18.3473 23.1424C17.3126 23.1531 15.82 23.1686 14.1797 23.0363C12.1956 22.876 9.99546 22.4994 8.12878 21.6365C8.10788 21.6307 8.08477 21.6282 8.05978 21.629L8.04543 21.629L8.04517 21.6285C7.9927 21.6338 7.93261 21.6493 7.86963 21.6783L7.8704 21.6799L7.87017 21.68L7.86946 21.6786C7.58086 21.8098 7.19774 22.1849 6.94849 22.7149C6.99832 22.7858 7.05058 22.8566 7.10306 22.9274L7.10334 22.9269L7.10314 22.9277C7.15561 22.9985 7.20811 23.0667 7.2632 23.1376C7.27955 23.1578 7.29595 23.1783 7.3124 23.1989C7.35133 23.2476 7.39069 23.2968 7.43124 23.3447C7.45964 23.3783 7.48809 23.4111 7.51644 23.444L7.51662 23.4442C7.54583 23.4781 7.57504 23.512 7.60429 23.5466C7.84307 23.8169 8.09792 24.0768 8.36819 24.3261C8.62707 24.5626 8.89786 24.7919 9.18483 25.0097C9.20056 25.0217 9.21632 25.0337 9.23213 25.0457C9.31738 25.1102 9.40384 25.1738 9.49149 25.2366C9.66927 25.3641 9.85137 25.4878 10.0394 25.609Z" fill="white"/>
</svg>
