<svg width="31" height="31" viewBox="0 0 31 31" fill="none" xmlns="http://www.w3.org/2000/svg">
<circle cx="15.1999" cy="15.0649" r="14.9997" fill="white"/>
<path d="M10.8674 14.0726C11.1074 13.9646 11.3429 13.8444 11.5579 13.6926C12.2602 13.1961 12.7049 12.3538 12.7188 11.4939C12.7206 11.3752 12.7141 11.2532 12.6653 11.1449C12.5461 10.8804 12.1978 10.781 11.9189 10.8619C11.6401 10.9427 11.422 11.159 11.2415 11.3865C11.0612 11.614 10.9026 11.8628 10.6816 12.0512C10.4894 12.215 10.258 12.3261 10.024 12.4216C9.33085 12.7041 8.50128 12.8544 7.86111 12.4662C7.73041 12.3872 7.61276 12.288 7.49459 12.1912C7.19589 11.9468 6.87685 11.7076 6.50224 11.615C6.12789 11.5224 5.68311 11.6116 5.45667 11.9239C5.26885 12.1832 5.26911 12.5453 5.3925 12.8408C5.51589 13.1361 5.74546 13.3748 5.99172 13.5793C6.80015 14.2516 7.85641 14.6306 8.90667 14.5837C9.58546 14.5534 10.2478 14.3515 10.8674 14.0726Z" fill="#21214D"/>
<path d="M19.5509 14.0726C19.3109 13.9646 19.0753 13.8444 18.8604 13.6926C18.1581 13.1961 17.7133 12.3538 17.6995 11.4939C17.6977 11.3752 17.7042 11.2532 17.753 11.1449C17.8722 10.8804 18.2204 10.781 18.4993 10.8619C18.7782 10.9427 18.9963 11.159 19.1768 11.3865C19.357 11.614 19.5159 11.8628 19.7366 12.0512C19.9289 12.215 20.1603 12.3261 20.3943 12.4216C21.0874 12.7041 21.917 12.8544 22.5571 12.4662C22.6878 12.3872 22.8055 12.288 22.9237 12.1912C23.2224 11.9468 23.5414 11.7076 23.916 11.615C24.2904 11.5224 24.7351 11.6116 24.9616 11.9239C25.1494 12.1832 25.1491 12.5453 25.0257 12.8408C24.9024 13.1361 24.6728 13.3748 24.4265 13.5793C23.6181 14.2516 22.5618 14.6306 21.5116 14.5837C20.8328 14.5534 20.1704 14.3515 19.5509 14.0726Z" fill="#21214D"/>
<path opacity="0.3" d="M8.85533 6.82859C9.84925 6.11877 10.6433 5.6779 11.223 6.04312C11.8024 6.40834 11.8133 7.65999 10.9603 8.11442C10.107 8.56886 7.67542 10.0023 4.28125 9.10834C3.76081 9.00764 4.45134 7.77842 5.87255 7.80347C7.29403 7.82877 8.50107 7.07512 8.85533 6.82859Z" fill="#21214D"/>
<path opacity="0.3" d="M21.5628 6.82859C20.5688 6.11877 19.7748 5.6779 19.1954 6.04312C18.6157 6.40834 18.6048 7.65999 19.4578 8.11442C20.3111 8.56886 22.7427 10.0023 26.1368 9.10834C26.6573 9.00764 25.9668 7.77842 24.5455 7.80347C23.1241 7.82877 21.917 7.07512 21.5628 6.82859Z" fill="#21214D"/>
<path d="M21.985 23.4374C21.5069 24.2555 19.733 24.3368 19.2018 23.5968C18.065 22.1909 16.1564 22.4529 15.2074 22.4529C14.262 22.4529 12.3532 22.1909 11.2166 23.5968C10.6855 24.3368 8.91156 24.2555 8.43339 23.4374C8.11121 22.8778 7.42069 22.0034 8.57869 20.261L8.58574 20.2503C8.7733 20.0202 8.96817 19.8008 9.17008 19.5919C10.8308 17.8602 12.9271 16.8262 15.2074 16.8262C17.4879 16.8262 19.5876 17.8602 21.2486 19.5919C21.4503 19.8008 21.6451 20.0202 21.8327 20.2503L21.8397 20.261C22.9977 22.0034 22.3072 22.8778 21.985 23.4374Z" fill="#21214D"/>
<path d="M9.5235 20.9408C9.93437 21.5891 11.2056 21.2348 11.7367 20.9408C13.0927 20.1123 14.5977 20.2081 15.2386 20.2081C15.8796 20.2081 17.3245 20.1123 18.6805 20.9408C19.2117 21.2348 20.4832 21.5891 20.8938 20.9408C21.0036 20.7668 21.1152 20.5524 21.1857 20.3056C21.2399 20.1162 21.35 19.6965 21.1995 19.5418C21.0119 19.3487 20.8192 19.1646 20.6209 18.9898C20.4226 18.8148 20.2194 18.6494 20.0112 18.4936C18.5929 17.4324 16.9528 16.8261 15.2068 16.8261C13.4611 16.8261 11.8231 17.4321 10.4058 18.4936C10.1978 18.6491 9.99437 18.8147 9.79637 18.9895C9.59811 19.1646 9.40532 19.3487 9.2175 19.5418C9.06724 19.6965 9.17733 20.1162 9.23133 20.3056C9.30202 20.5524 9.41367 20.7668 9.5235 20.9408Z" fill="white"/>
<path d="M9.5235 20.9408C9.93437 21.5891 11.2056 21.2348 11.7367 20.9408C13.0927 20.1123 14.5977 20.2081 15.2386 20.2081C15.8796 20.2081 17.3245 20.1123 18.6805 20.9408C19.2117 21.2348 20.4832 21.5891 20.8938 20.9408C21.0036 20.7668 21.1152 20.5524 21.1857 20.3056C21.2399 20.1162 21.35 19.6965 21.1995 19.5418C21.0119 19.3487 20.8192 19.1646 20.6209 18.9898C20.4226 18.8148 20.2194 18.6494 20.0112 18.4936C18.5929 17.4324 16.9528 16.8261 15.2068 16.8261C13.4611 16.8261 11.8231 17.4321 10.4058 18.4936C10.1978 18.6491 9.99437 18.8147 9.79637 18.9895C9.59811 19.1646 9.40532 19.3487 9.2175 19.5418C9.06724 19.6965 9.17733 20.1162 9.23133 20.3056C9.30202 20.5524 9.41367 20.7668 9.5235 20.9408Z" fill="white"/>
<path d="M9.52345 20.9406C9.9166 21.5625 11.1041 21.2614 11.668 20.9762C11.6599 20.9069 11.6503 20.8358 11.6422 20.7617C11.067 21.0469 9.85539 21.3854 9.44129 20.8038C9.46868 20.8521 9.49606 20.8971 9.52345 20.9406Z" fill="white"/>
<path d="M9.44129 20.8038C9.85539 21.3854 11.067 21.0469 11.6422 20.7617C11.6326 20.6876 11.6245 20.6118 11.6165 20.5328C11.0219 20.8196 9.81835 21.1452 9.36238 20.6505C9.38821 20.7037 9.4139 20.7538 9.44129 20.8038Z" fill="white"/>
<path d="M9.36238 20.6505C9.81835 21.1452 11.0219 20.8196 11.6165 20.5328C11.6084 20.4539 11.6019 20.3734 11.5956 20.2896C10.9801 20.578 9.78936 20.8908 9.29149 20.4847C9.31236 20.5427 9.33661 20.5973 9.36238 20.6505Z" fill="white"/>
<path d="M9.29149 20.4847C9.78936 20.8908 10.9801 20.578 11.5956 20.2896C11.5891 20.2058 11.5844 20.1206 11.581 20.0336C10.9559 20.322 9.74898 20.6714 9.23016 20.3057C9.2479 20.3669 9.26893 20.4267 9.29149 20.4847Z" fill="white"/>
<path d="M11.668 20.9762C11.6922 20.965 11.7149 20.9533 11.7359 20.9405C11.7309 20.8696 11.7262 20.7956 11.7197 20.7199C11.6973 20.7329 11.6664 20.7488 11.6422 20.7617C11.6503 20.8358 11.6599 20.9069 11.668 20.9762Z" fill="white"/>
<path d="M11.6422 20.7617C11.6665 20.7489 11.697 20.7327 11.7195 20.7198C11.7148 20.6441 11.7099 20.5668 11.7068 20.4862C11.6762 20.5008 11.6471 20.5167 11.6165 20.5328C11.6245 20.6118 11.6326 20.6876 11.6422 20.7617Z" fill="white"/>
<path d="M11.6165 20.5328C11.6471 20.5167 11.6762 20.5008 11.7068 20.4862C11.7018 20.4057 11.6987 20.3221 11.6971 20.2367C11.6616 20.2544 11.6311 20.2703 11.5956 20.2896C11.6022 20.3734 11.6084 20.4539 11.6165 20.5328Z" fill="white"/>
<path d="M11.5956 20.2896C11.6311 20.2703 11.6616 20.2544 11.6971 20.2367C11.694 20.1529 11.6941 20.0641 11.6941 19.9755C11.6554 19.9948 11.6181 20.0142 11.581 20.0336C11.5842 20.1206 11.5891 20.2058 11.5956 20.2896Z" fill="white"/>
<path d="M11.7359 20.9405C13.0909 20.1139 14.5925 20.2075 15.2353 20.2075C15.2353 20.1447 15.2353 20.0785 15.2353 20.0108C14.5683 20.0108 13.0651 19.9207 11.7197 20.7199C11.7262 20.7956 11.7309 20.8696 11.7359 20.9405Z" fill="white"/>
<path d="M11.7197 20.7199C13.0651 19.9207 14.5683 20.0108 15.2353 20.0108C15.2353 19.9432 15.2326 19.874 15.2326 19.8015C14.514 19.8015 13.0317 19.7451 11.7056 20.4862C11.7088 20.5668 11.7137 20.6441 11.7184 20.7199L11.7197 20.7199Z" fill="white"/>
<path d="M11.7065 20.4863C13.0326 19.7451 14.5149 19.8015 15.2335 19.8015C15.2335 19.7291 15.2335 19.6532 15.2335 19.5758C14.4617 19.5758 13.0019 19.5568 11.6968 20.2367C11.6994 20.3221 11.7016 20.4058 11.7065 20.4863Z" fill="white"/>
<path d="M11.6971 20.2367C13.0022 19.5568 14.4619 19.5758 15.2337 19.5758C15.2337 19.4984 15.2337 19.4196 15.2311 19.3391C14.4368 19.3391 12.9899 19.3228 11.6928 19.9755C11.6928 20.0641 11.6929 20.1528 11.696 20.2366L11.6971 20.2367Z" fill="white"/>
<path d="M15.2353 20.2075C15.2379 20.2075 15.2379 20.2075 15.2384 20.2075C15.2384 20.1447 15.2384 20.0785 15.2384 20.0108C15.2358 20.0108 15.2353 20.0108 15.2353 20.0108C15.2353 20.0785 15.2353 20.1447 15.2353 20.2075Z" fill="white"/>
<path d="M15.2353 20.0108C15.2353 20.0108 15.2379 20.0108 15.2384 20.0108C15.2384 19.9432 15.2384 19.8739 15.2384 19.8014C15.2358 19.8014 15.2353 19.8015 15.2335 19.8015C15.2335 19.874 15.2361 19.9432 15.2361 20.0108L15.2353 20.0108Z" fill="white"/>
<path d="M15.2335 19.8015C15.2361 19.8015 15.2366 19.8014 15.2384 19.8014C15.2384 19.7289 15.2384 19.6531 15.2384 19.5758C15.2358 19.5758 15.2353 19.5758 15.2335 19.5758C15.2335 19.6532 15.2335 19.7291 15.2335 19.8015Z" fill="white"/>
<path d="M15.2337 19.5758C15.2363 19.5758 15.2368 19.5757 15.2386 19.5757C15.2386 19.4984 15.2386 19.4196 15.2386 19.3391C15.236 19.3391 15.2355 19.3391 15.2321 19.3391C15.2347 19.4196 15.2347 19.4984 15.2347 19.5757L15.2337 19.5758Z" fill="white"/>
<path d="M15.2384 20.2075C15.8797 20.2075 17.3234 20.1124 18.6801 20.9405C18.6947 20.8745 18.709 20.807 18.7235 20.7345C17.3733 19.9256 15.9071 20.0108 15.2384 20.0108C15.2384 20.0785 15.2384 20.1447 15.2384 20.2075Z" fill="white"/>
<path d="M15.2384 20.0108C15.9071 20.0108 17.3733 19.9256 18.7235 20.7345C18.7381 20.6636 18.7525 20.5909 18.7654 20.5152C17.4265 19.7451 15.9667 19.8014 15.2384 19.8014C15.2384 19.8739 15.2384 19.9432 15.2384 20.0108Z" fill="white"/>
<path d="M15.2384 19.8014C15.9667 19.8014 17.4265 19.7451 18.7654 20.5152C18.78 20.4395 18.7928 20.3606 18.8041 20.2817C17.4765 19.5518 16.0263 19.5774 15.2384 19.5758C15.2384 19.6531 15.2384 19.7289 15.2384 19.8014Z" fill="white"/>
<path d="M15.2384 19.5758C16.0263 19.5784 17.4765 19.5517 18.8041 20.2817C18.8153 20.2011 18.8265 20.1189 18.8347 20.0335C17.5135 19.323 16.0539 19.3407 15.2386 19.3391C15.2386 19.4196 15.2384 19.4984 15.2384 19.5758Z" fill="white"/>
<path d="M18.6801 20.9405C19.2118 21.2354 20.4831 21.5882 20.8939 20.9405C20.9213 20.897 20.9488 20.852 20.9746 20.8037C20.5476 21.4063 19.2697 21.0277 18.7235 20.7345C18.709 20.807 18.6947 20.8745 18.6801 20.9405Z" fill="white"/>
<path d="M18.7235 20.7345C19.2697 21.0277 20.5476 21.4063 20.9746 20.8037C21.002 20.7538 21.0292 20.7037 21.0534 20.6505C20.5893 21.1581 19.3438 20.8069 18.7654 20.5152C18.7525 20.5909 18.7381 20.6636 18.7235 20.7345Z" fill="white"/>
<path d="M18.7655 20.5154C19.344 20.807 20.5893 21.1581 21.0534 20.6505C21.0792 20.5973 21.1034 20.5428 21.126 20.4848C20.6249 20.8941 19.4148 20.5701 18.8041 20.2817C18.7929 20.3606 18.78 20.4397 18.7655 20.5154Z" fill="white"/>
<path d="M18.8041 20.2817C19.4148 20.5701 20.6249 20.8941 21.126 20.4848C21.1468 20.4268 21.1679 20.3668 21.1857 20.3056C20.6669 20.6714 19.4598 20.3235 18.8347 20.0335C18.8265 20.1189 18.8153 20.2011 18.8041 20.2817Z" fill="white"/>
<path d="M9.23037 20.3057C9.7363 20.6617 10.8981 20.3397 11.5345 20.0545C11.5102 19.7725 11.4539 19.2585 11.5537 19.0087C10.869 19.2923 9.80882 19.663 9.21751 19.5422C9.06766 19.6968 9.17731 20.1155 9.23037 20.3057Z" fill="white"/>
<path d="M11.5343 20.0544C11.5505 20.0479 11.5665 20.0417 11.581 20.0336C11.5633 19.7484 11.5117 19.2312 11.6165 18.9798C11.5956 18.9895 11.5745 18.9989 11.5535 19.0086C11.4536 19.2584 11.5101 19.7724 11.5343 20.0544Z" fill="white"/>
<path d="M11.581 20.0336C12.9039 19.323 14.4088 19.3391 15.2289 19.3391C15.2263 19.0716 15.2264 18.5737 15.2258 18.3417C14.2704 18.3417 12.8895 18.3915 11.6166 18.9796C11.5119 19.231 11.5633 19.7484 11.581 20.0336Z" fill="white"/>
<path d="M15.2289 19.3391C15.2315 19.3391 15.2316 19.3391 15.2321 19.3391C15.2347 19.0716 15.237 18.5737 15.237 18.3417C15.2339 18.3417 15.229 18.3417 15.2258 18.3417C15.2285 18.5737 15.2284 19.0716 15.2289 19.3391Z" fill="white"/>
<path d="M15.2321 19.3391C15.2353 19.3391 15.2371 19.3391 15.2386 19.3391C15.2412 19.0716 15.241 18.5737 15.2384 18.3417C15.2384 18.3417 15.2384 18.3417 15.2358 18.3417C15.2358 18.5737 15.2326 19.0716 15.2308 19.3391H15.2321Z" fill="white"/>
<path d="M15.2386 19.3391C16.0539 19.3417 17.5135 19.3229 18.8347 20.0335C18.8734 19.758 18.9459 19.2521 18.8621 19.0104C17.5779 18.3965 16.2036 18.3433 15.2384 18.3417C15.241 18.5737 15.2412 19.0716 15.2386 19.3391Z" fill="white"/>
<path d="M18.8347 20.0335C19.4598 20.3235 20.6669 20.6714 21.1857 20.3056C21.2388 20.1155 21.35 19.6968 21.1984 19.5421C20.6087 19.6629 19.5469 19.2924 18.8621 19.0104C18.9459 19.2521 18.8734 19.758 18.8347 20.0335Z" fill="white"/>
<path d="M9.21717 19.5422C9.80848 19.663 10.8688 19.2922 11.5535 19.0086C11.6567 18.7283 11.7613 18.4544 11.8708 18.1902C11.1845 18.4721 10.5158 18.8024 9.79559 18.9893C9.59741 19.165 9.40408 19.3488 9.21717 19.5422Z" fill="white"/>
<path d="M11.5537 19.0087C11.7841 18.8991 12.0195 18.8074 12.2547 18.7301C12.3143 18.469 12.3788 18.2161 12.4432 17.9745C12.2499 18.0389 12.0597 18.1129 11.8711 18.1902C11.7616 18.4545 11.6569 18.7283 11.5537 19.0087Z" fill="white"/>
<path d="M12.2547 18.7301C13.3342 18.3772 14.4283 18.3417 15.2258 18.3417C15.2258 18.071 15.2232 17.8083 15.2232 17.5553C14.2838 17.5527 13.3348 17.6698 12.4421 17.9744C12.3777 18.216 12.3132 18.4689 12.2536 18.73L12.2547 18.7301Z" fill="white"/>
<path d="M15.2255 18.3417C15.2286 18.3417 15.2336 18.3417 15.2367 18.3417C15.2341 18.071 15.2318 17.8082 15.2302 17.5553C15.2276 17.5553 15.2253 17.5553 15.2237 17.5553C15.2237 17.8082 15.2263 18.071 15.2263 18.3417H15.2255Z" fill="white"/>
<path d="M15.237 18.3417C15.2396 18.3417 15.2395 18.3417 15.2395 18.3417C15.2395 18.071 15.2369 17.8082 15.2363 17.5553C15.2337 17.5553 15.2332 17.5553 15.2314 17.5553C15.234 17.8082 15.2364 18.071 15.238 18.3417H15.237Z" fill="white"/>
<path d="M15.2384 18.3417C16.0231 18.3443 17.0802 18.377 18.1388 18.7218C18.0792 18.4608 18.0196 18.2096 17.9552 17.968C17.0819 17.6715 16.1538 17.5585 15.2354 17.5553C15.238 17.8082 15.2384 18.071 15.2384 18.3417Z" fill="white"/>
<path d="M18.1388 18.7218C18.3805 18.8007 18.622 18.896 18.8621 19.0104C18.7606 18.7284 18.6545 18.4545 18.5465 18.1919C18.3516 18.1113 18.155 18.0356 17.9552 17.968C18.0196 18.2096 18.0792 18.4608 18.1388 18.7218Z" fill="white"/>
<path d="M18.8621 19.0104C19.5469 19.2924 20.6087 19.6629 21.1984 19.5421C21.0115 19.3487 20.8183 19.1649 20.6201 18.9893C19.8999 18.804 19.2313 18.4722 18.5465 18.1919C18.6545 18.4545 18.7606 18.7284 18.8621 19.0104Z" fill="white"/>
<path d="M9.79591 18.9893C10.7159 18.7509 11.549 18.279 12.4432 17.9745C12.4641 17.9116 12.485 17.8502 12.506 17.7889C11.6246 18.0902 10.8335 18.5752 9.94571 18.8604C9.89577 18.9023 9.84587 18.9458 9.79591 18.9893Z" fill="white"/>
<path d="M9.94571 18.8604C10.8335 18.5752 11.6246 18.0902 12.506 17.7889C12.5269 17.7277 12.5478 17.6682 12.5688 17.6086C11.7165 17.9018 10.9125 18.3481 10.0972 18.7348C10.0456 18.7751 9.99566 18.8169 9.94571 18.8604Z" fill="white"/>
<path d="M10.0972 18.7348C10.9125 18.3481 11.7165 17.9018 12.5688 17.6086C12.5897 17.5473 12.6106 17.4893 12.6331 17.4313C11.8081 17.7181 10.9945 18.1241 10.2501 18.6123C10.1986 18.6526 10.1471 18.6929 10.0972 18.7348Z" fill="white"/>
<path d="M10.2501 18.6123C10.9945 18.1241 11.8081 17.7181 12.6331 17.4313C12.654 17.3716 12.6749 17.3136 12.6975 17.2572C11.8871 17.5408 11.1185 17.9597 10.4047 18.493C10.3532 18.5317 10.3017 18.572 10.2501 18.6123Z" fill="white"/>
<path d="M12.4429 17.9744C13.3371 17.6699 14.2893 17.5536 15.2302 17.5553C15.2276 17.4924 15.2254 17.4298 15.2238 17.3686C14.2941 17.366 13.3837 17.4877 12.5056 17.789C12.4847 17.8502 12.4638 17.9116 12.4429 17.9744Z" fill="white"/>
<path d="M12.506 17.7889C13.3841 17.4876 14.2944 17.3669 15.224 17.3685C15.2214 17.3057 15.2209 17.2443 15.2176 17.1831C14.3136 17.1831 13.4163 17.3153 12.5688 17.6086C12.5478 17.6682 12.5269 17.7277 12.506 17.7889Z" fill="white"/>
<path d="M12.5688 17.6086C13.4163 17.3153 14.3136 17.1831 15.2176 17.1831C15.2149 17.1234 15.2146 17.0623 15.2128 17.0027C14.333 17.0027 13.4468 17.1461 12.6331 17.4313C12.6106 17.4893 12.5897 17.5473 12.5688 17.6086Z" fill="white"/>
<path d="M12.6331 17.4313C13.4468 17.1461 14.333 17.0027 15.2128 17.0027C15.2102 16.9431 15.2078 16.885 15.2062 16.8254C14.3378 16.8254 13.4983 16.9752 12.6975 17.2572C12.6749 17.3136 12.654 17.3716 12.6331 17.4313Z" fill="white"/>
<path d="M15.2304 17.5553C15.2304 17.4925 15.2304 17.4298 15.2304 17.3686C15.2278 17.3686 15.2256 17.3685 15.224 17.3685C15.2267 17.4297 15.2289 17.4925 15.2304 17.5553Z" fill="white"/>
<path d="M15.224 17.3685C15.2267 17.3685 15.2289 17.3686 15.2304 17.3686C15.2278 17.3058 15.2279 17.2443 15.2279 17.1831C15.2247 17.1831 15.2214 17.1831 15.2167 17.1831C15.2198 17.2443 15.2216 17.3057 15.2232 17.3685H15.224Z" fill="white"/>
<path d="M15.2176 17.1831C15.2225 17.1831 15.2255 17.1831 15.2286 17.1831C15.2286 17.1234 15.2286 17.0623 15.2286 17.0027C15.2221 17.0027 15.219 17.0027 15.2125 17.0027C15.2151 17.0623 15.2157 17.1234 15.2176 17.1831Z" fill="white"/>
<path d="M15.2128 17.0027C15.2193 17.0027 15.2221 17.0027 15.2286 17.0027C15.2286 16.9431 15.2288 16.885 15.2288 16.8254C15.2207 16.8254 15.214 16.8254 15.2062 16.8254C15.2088 16.885 15.2112 16.9431 15.2128 17.0027Z" fill="white"/>
<path d="M15.2304 17.5553C16.152 17.5584 17.0802 17.6715 17.9552 17.968C17.9358 17.9051 17.9147 17.8438 17.8938 17.7826C17.0317 17.4909 16.1408 17.3702 15.2304 17.3686C15.2304 17.4298 15.2304 17.4925 15.2304 17.5553Z" fill="white"/>
<path d="M15.2304 17.3686C16.1408 17.3712 17.0317 17.4909 17.8938 17.7826C17.8729 17.7229 17.852 17.6618 17.8311 17.6021C16.9981 17.3169 16.1167 17.1863 15.2289 17.1831C15.2289 17.2443 15.229 17.3057 15.2316 17.3685L15.2304 17.3686Z" fill="white"/>
<path d="M15.2289 17.1831C16.1167 17.1863 16.9981 17.3169 17.8311 17.6021C17.8102 17.5425 17.7891 17.4844 17.7682 17.4248C16.9642 17.1461 16.0941 17.0059 15.2289 17.0027C15.2289 17.0623 15.2289 17.1234 15.2289 17.1831Z" fill="white"/>
<path d="M15.2289 17.0027C16.0941 17.0059 16.9642 17.1461 17.7682 17.4248C17.7457 17.3668 17.7247 17.3087 17.7022 17.2523C16.9127 16.9768 16.0827 16.8286 15.2288 16.8254C15.2288 16.885 15.2289 16.9431 15.2289 17.0027Z" fill="white"/>
<path d="M17.9552 17.968C18.8558 18.2725 19.6953 18.7508 20.6201 18.9893C20.5702 18.9458 20.5202 18.9024 20.4702 18.8605C19.5776 18.5753 18.7815 18.0855 17.8938 17.7826C17.9147 17.8438 17.9358 17.9051 17.9552 17.968Z" fill="white"/>
<path d="M17.8938 17.7826C18.7815 18.0855 19.5776 18.5753 20.4702 18.8605C20.4203 18.8186 20.3703 18.7752 20.3187 18.7349C19.497 18.3466 18.6899 17.897 17.8311 17.6021C17.852 17.6618 17.8729 17.7229 17.8938 17.7826Z" fill="white"/>
<path d="M17.8311 17.6021C18.6899 17.897 19.497 18.3466 20.3187 18.7349C20.2688 18.693 20.2173 18.6526 20.1658 18.6124C19.4166 18.1226 18.5963 17.7132 17.7682 17.4248C17.7891 17.4844 17.8102 17.5425 17.8311 17.6021Z" fill="white"/>
<path d="M17.7682 17.4248C18.5963 17.7132 19.4166 18.1226 20.1658 18.6124C20.1142 18.5721 20.0625 18.5317 20.0109 18.4931C19.2939 17.9565 18.5191 17.5359 17.7022 17.2523C17.7247 17.3087 17.7457 17.3668 17.7682 17.4248Z" fill="white"/>
</svg>
