<svg width="38" height="39" viewBox="0 0 38 39" fill="none" xmlns="http://www.w3.org/2000/svg">
<ellipse cx="18.9996" cy="19.0822" rx="18.9996" ry="18.9996" fill="#FF9B99"/>
<path d="M13.5101 17.8253C13.8141 17.6885 14.1125 17.5362 14.3848 17.3438C15.2743 16.715 15.8377 15.648 15.8552 14.5589C15.8576 14.4086 15.8493 14.2539 15.7875 14.1168C15.6365 13.7817 15.1954 13.6559 14.8421 13.7583C14.4889 13.8607 14.2126 14.1347 13.984 14.4228C13.7557 14.7109 13.5548 15.0262 13.2749 15.2647C13.0313 15.4723 12.7382 15.613 12.4418 15.734C11.5639 16.0918 10.5131 16.2821 9.70221 15.7905C9.53666 15.6903 9.38764 15.5648 9.23795 15.4422C8.8596 15.1326 8.45548 14.8296 7.98098 14.7123C7.5068 14.595 6.94341 14.708 6.65659 15.1035C6.41868 15.4319 6.41901 15.8906 6.57531 16.265C6.7316 16.639 7.02239 16.9414 7.33432 17.2004C8.35833 18.052 9.69626 18.5321 11.0266 18.4726C11.8864 18.4343 12.7254 18.1785 13.5101 17.8253Z" fill="#21214D"/>
<path d="M24.5102 17.8253C24.2062 17.6885 23.9078 17.5362 23.6356 17.3438C22.746 16.715 22.1826 15.648 22.1651 14.5589C22.1628 14.4086 22.1711 14.2539 22.2329 14.1168C22.3839 13.7817 22.825 13.6559 23.1782 13.7583C23.5315 13.8607 23.8077 14.1347 24.0364 14.4228C24.2647 14.7109 24.4659 15.0262 24.7455 15.2647C24.989 15.4723 25.2821 15.613 25.5785 15.734C26.4565 16.0918 27.5073 16.2821 28.3182 15.7905C28.4837 15.6903 28.6327 15.5648 28.7824 15.4422C29.1608 15.1326 29.5649 14.8296 30.0394 14.7123C30.5136 14.595 31.077 14.708 31.3638 15.1035C31.6017 15.4319 31.6014 15.8906 31.4451 16.265C31.2888 16.639 30.998 16.9414 30.686 17.2004C29.662 18.052 28.3241 18.5321 26.9938 18.4726C26.134 18.4343 25.295 18.1785 24.5102 17.8253Z" fill="#21214D"/>
<path opacity="0.3" d="M10.9622 8.64949C12.2212 7.75038 13.227 7.19195 13.9613 7.65456C14.6952 8.11717 14.709 9.70259 13.6285 10.2782C12.5477 10.8538 9.46769 12.6696 5.16841 11.5372C4.50919 11.4096 5.38385 9.85261 7.18406 9.88433C8.9846 9.91638 10.5135 8.96175 10.9622 8.64949Z" fill="#21214D"/>
<path opacity="0.3" d="M27.0583 8.64949C25.7994 7.75038 24.7935 7.19195 24.0596 7.65456C23.3254 8.11717 23.3115 9.70259 24.392 10.2782C25.4729 10.8538 28.5529 12.6696 32.8522 11.5372C33.5114 11.4096 32.6367 9.85261 30.8365 9.88433C29.036 9.91638 27.5071 8.96175 27.0583 8.64949Z" fill="#21214D"/>
<path d="M27.5929 29.6873C26.9872 30.7235 24.7403 30.8266 24.0675 29.8892C22.6275 28.1085 20.21 28.4402 19.0079 28.4402C17.8104 28.4402 15.3926 28.1085 13.9529 29.8892C13.2801 30.8266 11.0332 30.7235 10.4275 29.6873C10.0194 28.9785 9.14476 27.8709 10.6116 25.6639L10.6205 25.6504C10.8581 25.3589 11.1049 25.081 11.3607 24.8163C13.4642 22.6229 16.1196 21.3131 19.0079 21.3131C21.8966 21.3131 24.5562 22.6229 26.6601 24.8163C26.9155 25.081 27.1624 25.3589 27.4 25.6504L27.4089 25.6639C28.8757 27.8709 28.001 28.9785 27.5929 29.6873Z" fill="#21214D"/>
<path d="M11.8092 26.5251C12.3296 27.3462 13.9398 26.8975 14.6126 26.5251C16.3302 25.4756 18.2365 25.5969 19.0483 25.5969C19.8602 25.5969 21.6905 25.4756 23.4081 26.5251C24.0809 26.8975 25.6914 27.3462 26.2115 26.5251C26.3506 26.3047 26.492 26.033 26.5813 25.7204C26.65 25.4805 26.7894 24.9489 26.5988 24.7529C26.3612 24.5084 26.117 24.2751 25.8659 24.0537C25.6147 23.832 25.3573 23.6225 25.0936 23.4252C23.2971 22.081 21.2196 21.3131 19.008 21.3131C16.7968 21.3131 14.722 22.0807 12.9267 23.4252C12.6633 23.6222 12.4056 23.832 12.1548 24.0534C11.9037 24.2751 11.6595 24.5084 11.4216 24.7529C11.2312 24.9489 11.3707 25.4805 11.4391 25.7204C11.5286 26.033 11.6701 26.3047 11.8092 26.5251Z" fill="white"/>
<path d="M11.8092 26.5251C12.3296 27.3462 13.9398 26.8975 14.6126 26.5251C16.3302 25.4756 18.2365 25.5969 19.0483 25.5969C19.8602 25.5969 21.6905 25.4756 23.4081 26.5251C24.0809 26.8975 25.6914 27.3462 26.2115 26.5251C26.3506 26.3047 26.492 26.033 26.5813 25.7204C26.65 25.4805 26.7894 24.9489 26.5988 24.7529C26.3612 24.5084 26.117 24.2751 25.8659 24.0537C25.6147 23.832 25.3573 23.6225 25.0936 23.4252C23.2971 22.081 21.2196 21.3131 19.008 21.3131C16.7968 21.3131 14.722 22.0807 12.9267 23.4252C12.6633 23.6222 12.4056 23.832 12.1548 24.0534C11.9037 24.2751 11.6595 24.5084 11.4216 24.7529C11.2312 24.9489 11.3707 25.4805 11.4391 25.7204C11.5286 26.033 11.6701 26.3047 11.8092 26.5251Z" fill="white"/>
<path d="M11.8091 26.5247C12.3071 27.3125 13.8112 26.9311 14.5255 26.5699C14.5153 26.4821 14.5032 26.3921 14.4929 26.2982C13.7643 26.6594 12.2296 27.0882 11.705 26.3514C11.7397 26.4127 11.7744 26.4696 11.8091 26.5247Z" fill="white"/>
<path d="M11.705 26.3514C12.2296 27.0882 13.7643 26.6594 14.4929 26.2982C14.4807 26.2043 14.4705 26.1082 14.4603 26.0082C13.7072 26.3715 12.1827 26.7839 11.6051 26.1573C11.6378 26.2247 11.6703 26.2882 11.705 26.3514Z" fill="white"/>
<path d="M11.6051 26.1573C12.1827 26.7839 13.7072 26.3715 14.4603 26.0082C14.45 25.9082 14.4418 25.8063 14.4339 25.7002C13.6542 26.0655 12.1459 26.4616 11.5153 25.9473C11.5417 26.0208 11.5724 26.0899 11.6051 26.1573Z" fill="white"/>
<path d="M11.5153 25.9473C12.1459 26.4616 13.6542 26.0655 14.4339 25.7002C14.4256 25.5941 14.4197 25.4861 14.4154 25.3759C13.6235 25.7412 12.0948 26.1838 11.4376 25.7205C11.4601 25.798 11.4867 25.8738 11.5153 25.9473Z" fill="white"/>
<path d="M14.5255 26.5699C14.5562 26.5557 14.585 26.5408 14.6115 26.5246C14.6052 26.4348 14.5993 26.3411 14.591 26.2452C14.5626 26.2617 14.5235 26.2819 14.4929 26.2982C14.5032 26.3921 14.5153 26.4821 14.5255 26.5699Z" fill="white"/>
<path d="M14.4929 26.2982C14.5237 26.282 14.5622 26.2615 14.5908 26.2451C14.5848 26.1492 14.5786 26.0512 14.5746 25.9492C14.5359 25.9677 14.499 25.9878 14.4603 26.0082C14.4705 26.1082 14.4807 26.2043 14.4929 26.2982Z" fill="white"/>
<path d="M14.4603 26.0082C14.499 25.9878 14.5359 25.9677 14.5746 25.9492C14.5684 25.8472 14.5644 25.7413 14.5624 25.6331C14.5175 25.6556 14.4787 25.6757 14.4339 25.7002C14.4421 25.8063 14.45 25.9082 14.4603 26.0082Z" fill="white"/>
<path d="M14.4339 25.7002C14.4787 25.6757 14.5175 25.6556 14.5624 25.6331C14.5584 25.527 14.5586 25.4145 14.5586 25.3023C14.5096 25.3267 14.4623 25.3514 14.4154 25.3759C14.4194 25.4861 14.4256 25.5941 14.4339 25.7002Z" fill="white"/>
<path d="M14.6115 26.5246C16.3279 25.4776 18.2299 25.5962 19.0441 25.5962C19.0441 25.5166 19.0441 25.4328 19.0441 25.347C18.1992 25.347 16.2952 25.2329 14.591 26.2452C14.5993 26.3411 14.6052 26.4348 14.6115 26.5246Z" fill="white"/>
<path d="M14.591 26.2452C16.2952 25.2329 18.1992 25.347 19.0441 25.347C19.0441 25.2613 19.0407 25.1737 19.0407 25.0818C18.1304 25.0818 16.2529 25.0104 14.5732 25.9492C14.5772 26.0513 14.5834 26.1492 14.5893 26.2451L14.591 26.2452Z" fill="white"/>
<path d="M14.5743 25.9493C16.254 25.0105 18.1316 25.0819 19.0418 25.0819C19.0418 24.9901 19.0418 24.894 19.0418 24.796C18.0642 24.796 16.2152 24.7719 14.5621 25.6331C14.5654 25.7413 14.568 25.8473 14.5743 25.9493Z" fill="white"/>
<path d="M14.5624 25.6331C16.2155 24.7719 18.0645 24.7959 19.0421 24.7959C19.0421 24.698 19.0421 24.5982 19.0388 24.4962C18.0327 24.4962 16.1999 24.4756 14.557 25.3022C14.557 25.4145 14.557 25.5269 14.561 25.633L14.5624 25.6331Z" fill="white"/>
<path d="M19.0441 25.5962C19.0475 25.5962 19.0474 25.5962 19.0481 25.5962C19.0481 25.5166 19.0481 25.4328 19.0481 25.3471C19.0448 25.3471 19.0441 25.347 19.0441 25.347C19.0441 25.4328 19.0441 25.5166 19.0441 25.5962Z" fill="white"/>
<path d="M19.0441 25.347C19.0441 25.347 19.0474 25.3471 19.0481 25.3471C19.0481 25.2613 19.0481 25.1736 19.0481 25.0818C19.0448 25.0818 19.0441 25.0819 19.0418 25.0819C19.0418 25.1738 19.0452 25.2613 19.0452 25.3471L19.0441 25.347Z" fill="white"/>
<path d="M19.0418 25.0819C19.0451 25.0819 19.0458 25.0818 19.0481 25.0818C19.0481 24.99 19.0481 24.894 19.0481 24.796C19.0448 24.796 19.0441 24.796 19.0418 24.796C19.0418 24.894 19.0418 24.9901 19.0418 25.0819Z" fill="white"/>
<path d="M19.0421 24.7959C19.0454 24.7959 19.046 24.7959 19.0483 24.7959C19.0483 24.6979 19.0483 24.5982 19.0483 24.4961C19.045 24.4961 19.0444 24.4961 19.0401 24.4961C19.0434 24.5982 19.0433 24.6979 19.0433 24.7959L19.0421 24.7959Z" fill="white"/>
<path d="M19.0481 25.5962C19.8604 25.5962 21.689 25.4756 23.4075 26.5247C23.426 26.441 23.4441 26.3555 23.4625 26.2636C21.7522 25.2391 19.8951 25.3471 19.0481 25.3471C19.0481 25.4328 19.0481 25.5166 19.0481 25.5962Z" fill="white"/>
<path d="M19.0481 25.3471C19.8951 25.3471 21.7522 25.2391 23.4625 26.2636C23.481 26.1738 23.4993 26.0819 23.5156 25.9859C21.8196 25.0104 19.9706 25.0818 19.0481 25.0818C19.0481 25.1736 19.0481 25.2613 19.0481 25.3471Z" fill="white"/>
<path d="M19.0481 25.0818C19.9706 25.0818 21.8196 25.0104 23.5156 25.9859C23.5341 25.89 23.5503 25.7901 23.5646 25.6902C21.8829 24.7656 20.0461 24.798 19.0481 24.796C19.0481 24.894 19.0481 24.99 19.0481 25.0818Z" fill="white"/>
<path d="M19.0481 24.796C20.0461 24.7993 21.8829 24.7655 23.5646 25.6902C23.5788 25.5881 23.593 25.484 23.6034 25.3758C21.9298 24.4757 20.081 24.4982 19.0483 24.4961C19.0483 24.5982 19.0481 24.698 19.0481 24.796Z" fill="white"/>
<path d="M23.4075 26.5247C24.081 26.8982 25.6913 27.3451 26.2117 26.5246C26.2464 26.4695 26.2812 26.4126 26.3139 26.3513C25.773 27.1146 24.1544 26.6351 23.4625 26.2636C23.4441 26.3555 23.426 26.441 23.4075 26.5247Z" fill="white"/>
<path d="M23.4625 26.2636C24.1544 26.6351 25.773 27.1146 26.3139 26.3513C26.3486 26.2881 26.3831 26.2247 26.4137 26.1573C25.8259 26.8002 24.2483 26.3554 23.5156 25.9859C23.4993 26.0819 23.481 26.1738 23.4625 26.2636Z" fill="white"/>
<path d="M23.5157 25.9861C24.2484 26.3556 25.8259 26.8002 26.4137 26.1573C26.4464 26.0899 26.4771 26.0209 26.5056 25.9474C25.8709 26.4658 24.3381 26.0554 23.5646 25.6902C23.5504 25.7901 23.534 25.8902 23.5157 25.9861Z" fill="white"/>
<path d="M23.5646 25.6902C24.3381 26.0554 25.8709 26.4658 26.5056 25.9474C26.5321 25.8739 26.5588 25.798 26.5813 25.7204C25.9241 26.1837 24.3952 25.7431 23.6034 25.3758C23.593 25.484 23.5788 25.5881 23.5646 25.6902Z" fill="white"/>
<path d="M11.4379 25.7205C12.0787 26.1715 13.5503 25.7635 14.3565 25.4023C14.3257 25.0451 14.2543 24.394 14.3808 24.0777C13.5134 24.4369 12.1706 24.9064 11.4216 24.7534C11.2318 24.9493 11.3707 25.4797 11.4379 25.7205Z" fill="white"/>
<path d="M14.3562 25.4022C14.3767 25.394 14.397 25.3861 14.4154 25.3759C14.3929 25.0146 14.3276 24.3595 14.4603 24.0411C14.4338 24.0533 14.4071 24.0653 14.3806 24.0776C14.254 24.3939 14.3255 25.0451 14.3562 25.4022Z" fill="white"/>
<path d="M14.4154 25.3759C16.091 24.4758 17.9972 24.4961 19.036 24.4961C19.0327 24.1573 19.0328 23.5267 19.0321 23.2328C17.8219 23.2328 16.0727 23.2959 14.4604 24.0408C14.3278 24.3592 14.3929 25.0146 14.4154 25.3759Z" fill="white"/>
<path d="M19.036 24.4961C19.0393 24.4961 19.0395 24.4961 19.0401 24.4961C19.0434 24.1573 19.0463 23.5267 19.0463 23.2328C19.0424 23.2328 19.0361 23.2328 19.0321 23.2328C19.0354 23.5267 19.0354 24.1573 19.036 24.4961Z" fill="white"/>
<path d="M19.0401 24.4961C19.0441 24.4961 19.0464 24.4961 19.0483 24.4961C19.0516 24.1573 19.0514 23.5267 19.0481 23.2328C19.0481 23.2328 19.048 23.2328 19.0447 23.2328C19.0447 23.5267 19.0407 24.1573 19.0384 24.4961H19.0401Z" fill="white"/>
<path d="M19.0483 24.4961C20.081 24.4994 21.9298 24.4757 23.6034 25.3758C23.6523 25.0268 23.7442 24.386 23.638 24.0798C22.0114 23.3023 20.2706 23.2348 19.0481 23.2328C19.0514 23.5267 19.0516 24.1573 19.0483 24.4961Z" fill="white"/>
<path d="M23.6034 25.3758C24.3952 25.7431 25.9241 26.1837 26.5813 25.7204C26.6486 25.4796 26.7894 24.9492 26.5974 24.7533C25.8505 24.9064 24.5054 24.437 23.638 24.0798C23.7442 24.386 23.6523 25.0268 23.6034 25.3758Z" fill="white"/>
<path d="M11.4212 24.7534C12.1702 24.9064 13.5132 24.4368 14.3806 24.0776C14.5112 23.7225 14.6437 23.3756 14.7825 23.0409C13.9131 23.398 13.0661 23.8164 12.1538 24.0531C11.9028 24.2756 11.6579 24.5085 11.4212 24.7534Z" fill="white"/>
<path d="M14.3808 24.0777C14.6727 23.9389 14.9707 23.8227 15.2687 23.7247C15.3442 23.3941 15.4258 23.0737 15.5075 22.7676C15.2626 22.8492 15.0217 22.943 14.7829 23.0409C14.6441 23.3756 14.5114 23.7226 14.3808 24.0777Z" fill="white"/>
<path d="M15.2687 23.7247C16.6361 23.2778 18.0219 23.2328 19.0321 23.2328C19.0321 22.8899 19.0287 22.5571 19.0287 22.2367C17.8389 22.2334 16.6368 22.3818 15.5061 22.7675C15.4245 23.0736 15.3428 23.394 15.2673 23.7246L15.2687 23.7247Z" fill="white"/>
<path d="M19.0317 23.2328C19.0357 23.2328 19.042 23.2328 19.0459 23.2328C19.0426 22.8899 19.0397 22.5571 19.0377 22.2366C19.0344 22.2366 19.0314 22.2366 19.0295 22.2366C19.0295 22.5571 19.0327 22.8899 19.0327 23.2328H19.0317Z" fill="white"/>
<path d="M19.0463 23.2328C19.0496 23.2328 19.0495 23.2328 19.0495 23.2328C19.0495 22.8899 19.0461 22.5571 19.0454 22.2366C19.0421 22.2366 19.0415 22.2366 19.0391 22.2366C19.0425 22.5571 19.0456 22.8899 19.0475 23.2328H19.0463Z" fill="white"/>
<path d="M19.0481 23.2328C20.042 23.2361 21.3811 23.2775 22.7219 23.7142C22.6464 23.3836 22.5709 23.0655 22.4893 22.7594C21.3831 22.3839 20.2076 22.2407 19.0442 22.2366C19.0475 22.5571 19.0481 22.8899 19.0481 23.2328Z" fill="white"/>
<path d="M22.7219 23.7142C23.0281 23.8143 23.3339 23.935 23.638 24.0798C23.5095 23.7227 23.375 23.3757 23.2383 23.043C22.9914 22.941 22.7424 22.8451 22.4893 22.7594C22.5709 23.0655 22.6464 23.3836 22.7219 23.7142Z" fill="white"/>
<path d="M23.638 24.0798C24.5054 24.437 25.8505 24.9064 26.5974 24.7533C26.3607 24.5084 26.1159 24.2755 25.8649 24.0531C24.9526 23.8184 24.1057 23.3982 23.2383 23.043C23.375 23.3757 23.5095 23.7227 23.638 24.0798Z" fill="white"/>
<path d="M12.1542 24.0531C13.3196 23.7511 14.3748 23.1533 15.5075 22.7676C15.5339 22.688 15.5605 22.6102 15.587 22.5326C14.4706 22.9143 13.4685 23.5286 12.344 23.8899C12.2807 23.9429 12.2175 23.998 12.1542 24.0531Z" fill="white"/>
<path d="M12.344 23.8899C13.4685 23.5286 14.4706 22.9143 15.587 22.5326C15.6134 22.4551 15.64 22.3797 15.6666 22.3042C14.5869 22.6756 13.5685 23.241 12.5358 23.7308C12.4705 23.7818 12.4072 23.8347 12.344 23.8899Z" fill="white"/>
<path d="M12.5358 23.7308C13.5685 23.241 14.5869 22.6756 15.6666 22.3042C15.693 22.2266 15.7194 22.1531 15.748 22.0796C14.7031 22.4429 13.6725 22.9572 12.7296 23.5756C12.6643 23.6266 12.5991 23.6777 12.5358 23.7308Z" fill="white"/>
<path d="M12.7296 23.5756C13.6725 22.9572 14.7031 22.4429 15.748 22.0796C15.7745 22.0041 15.801 21.9305 15.8296 21.8591C14.803 22.2183 13.8295 22.7489 12.9254 23.4245C12.8601 23.4734 12.7949 23.5245 12.7296 23.5756Z" fill="white"/>
<path d="M15.5071 22.7676C16.6398 22.3818 17.8458 22.2346 19.0377 22.2366C19.0344 22.157 19.0315 22.0778 19.0295 22.0002C17.8519 21.9969 16.6988 22.151 15.5864 22.5327C15.56 22.6102 15.5336 22.688 15.5071 22.7676Z" fill="white"/>
<path d="M15.587 22.5326C16.6993 22.151 17.8523 21.9981 19.0299 22.0001C19.0266 21.9205 19.0259 21.8427 19.0216 21.7652C17.8767 21.7652 16.7401 21.9327 15.6666 22.3042C15.64 22.3797 15.6134 22.4551 15.587 22.5326Z" fill="white"/>
<path d="M15.6666 22.3042C16.7401 21.9327 17.8767 21.7652 19.0216 21.7652C19.0183 21.6897 19.0179 21.6122 19.0156 21.5367C17.9013 21.5367 16.7787 21.7183 15.748 22.0796C15.7194 22.1531 15.693 22.2266 15.6666 22.3042Z" fill="white"/>
<path d="M15.748 22.0796C16.7787 21.7183 17.9013 21.5367 19.0156 21.5367C19.0123 21.4612 19.0093 21.3876 19.0073 21.3121C17.9072 21.3121 16.8439 21.5019 15.8296 21.8591C15.801 21.9305 15.7745 22.0041 15.748 22.0796Z" fill="white"/>
<path d="M19.0379 22.2367C19.0379 22.1571 19.0379 22.0777 19.0379 22.0002C19.0346 22.0002 19.0319 22.0001 19.0299 22.0001C19.0332 22.0777 19.036 22.1571 19.0379 22.2367Z" fill="white"/>
<path d="M19.0299 22.0001C19.0332 22.0001 19.036 22.0002 19.0379 22.0002C19.0346 21.9206 19.0347 21.8427 19.0347 21.7652C19.0307 21.7652 19.0265 21.7652 19.0205 21.7652C19.0245 21.8427 19.0268 21.9205 19.0287 22.0001H19.0299Z" fill="white"/>
<path d="M19.0216 21.7652C19.0279 21.7652 19.0317 21.7652 19.0357 21.7652C19.0357 21.6897 19.0357 21.6122 19.0357 21.5367C19.0274 21.5367 19.0234 21.5367 19.0152 21.5367C19.0185 21.6122 19.0193 21.6897 19.0216 21.7652Z" fill="white"/>
<path d="M19.0156 21.5367C19.0239 21.5367 19.0274 21.5367 19.0357 21.5367C19.0357 21.4612 19.0358 21.3876 19.0358 21.3121C19.0256 21.3121 19.0172 21.3121 19.0073 21.3121C19.0106 21.3876 19.0136 21.4612 19.0156 21.5367Z" fill="white"/>
<path d="M19.0379 22.2367C20.2053 22.2407 21.3811 22.3839 22.4893 22.7594C22.4648 22.6798 22.438 22.6021 22.4115 22.5246C21.3196 22.1552 20.1911 22.0022 19.0379 22.0002C19.0379 22.0777 19.0379 22.1571 19.0379 22.2367Z" fill="white"/>
<path d="M19.0379 22.0002C20.1911 22.0035 21.3196 22.1552 22.4115 22.5246C22.3851 22.4491 22.3587 22.3716 22.3321 22.296C21.277 21.9348 20.1605 21.7693 19.036 21.7652C19.036 21.8427 19.0361 21.9205 19.0394 22.0001L19.0379 22.0002Z" fill="white"/>
<path d="M19.036 21.7652C20.1605 21.7693 21.277 21.9348 22.3321 22.296C22.3057 22.2205 22.279 22.1469 22.2524 22.0714C21.234 21.7184 20.132 21.5408 19.036 21.5367C19.036 21.6122 19.036 21.6897 19.036 21.7652Z" fill="white"/>
<path d="M19.036 21.5367C20.132 21.5408 21.234 21.7184 22.2524 22.0714C22.224 21.998 22.1974 21.9244 22.1688 21.853C21.1688 21.504 20.1175 21.3162 19.0358 21.3121C19.0358 21.3876 19.036 21.4612 19.036 21.5367Z" fill="white"/>
<path d="M22.4893 22.7594C23.6301 23.1451 24.6934 23.751 25.8649 24.0531C25.8016 23.9979 25.7383 23.943 25.675 23.8899C24.5444 23.5287 23.536 22.9082 22.4115 22.5246C22.438 22.6021 22.4648 22.6798 22.4893 22.7594Z" fill="white"/>
<path d="M22.4115 22.5246C23.536 22.9082 24.5444 23.5287 25.675 23.8899C25.6118 23.8369 25.5484 23.7819 25.4831 23.7309C24.4422 23.239 23.4199 22.6695 22.3321 22.296C22.3587 22.3716 22.3851 22.4491 22.4115 22.5246Z" fill="white"/>
<path d="M22.3321 22.296C23.4199 22.6695 24.4422 23.239 25.4831 23.7309C25.4198 23.6778 25.3547 23.6267 25.2894 23.5756C24.3404 22.9552 23.3014 22.4368 22.2524 22.0714C22.279 22.1469 22.3057 22.2205 22.3321 22.296Z" fill="white"/>
<path d="M22.2524 22.0714C23.3014 22.4368 24.3404 22.9552 25.2894 23.5756C25.2241 23.5246 25.1585 23.4735 25.0932 23.4245C24.185 22.7449 23.2036 22.2122 22.1688 21.853C22.1974 21.9244 22.224 21.998 22.2524 22.0714Z" fill="white"/>
</svg>
